<svg xmlns="http://www.w3.org/2000/svg" viewBox="0 0 404.63 410.18"><defs><style>.cls-1{fill:#42a1a0;}</style></defs><title>Asset 1</title><g id="Layer_2" data-name="Layer 2"><g id="Layer_1-2" data-name="Layer 1"><path class="cls-1" d="M361.77,0c.8.29.85.94.92,1.6.49,4.6,1,9.2,1.47,13.79.15,1.43.2,2.87.33,4.3.33,3.63.5,7.29,1.08,10.88.45,2.85.43,5.72.87,8.53.42,2.6.48,5.19.65,7.79.07,1,.31,2,.48,3.06a4.16,4.16,0,0,1,.14.77c-.16,3.53,1,7,.93,10.48a4.83,4.83,0,0,0,.19,1.74,12.3,12.3,0,0,1,.52,3.85A25.39,25.39,0,0,0,370,72.6a25.24,25.24,0,0,1,.27,4.28c.07.9.28,1.79.41,2.69.1.71.2,1.41.25,2.13a19.13,19.13,0,0,0,.64,5.21,4.4,4.4,0,0,1,.12,1.36c.06,1.57.06,3.14.17,4.7.08,1.22.3,2.44.44,3.67.21,1.94.38,3.89.6,5.83.37,3.17.79,6.34,1.13,9.51.18,1.69.21,3.39.38,5.07.46,4.54,1,9.07,1.43,13.61.08.78.17,1.56.2,2.34a17.14,17.14,0,0,0,.54,4.44,11.14,11.14,0,0,1,.21,2.53c.13,2.59-.08,5.22.71,7.76a10.08,10.08,0,0,1,.16,1.75c.16,1.49.36,3,.53,4.45q.12,1.17.18,2.34a23.28,23.28,0,0,0,.59,4.83,15.62,15.62,0,0,1,.25,3.5,20.33,20.33,0,0,0,.59,5.81,7.21,7.21,0,0,1,.18,2.14,22.45,22.45,0,0,0,1.35,7.44,2,2,0,0,1,.15.57c.22,2.89,1.46,5.53,2.1,8.32.4,1.71.93,3.39,1.39,5.08.3,1.07.6,2.13.88,3.2.79,3,1.56,6,2.38,9,.58,2.12,1.29,4.21,1.86,6.33.51,1.88.9,3.78,1.34,5.67a10.36,10.36,0,0,0,.28,1.13,74,74,0,0,1,2.39,8.66c.44,2,1.12,3.87,1.64,5.82.29,1.07.46,2.16.73,3.23s.56,2,.86,3c.37,1.18.76,2.35,1.13,3.52a3.51,3.51,0,0,1,.21.75c.3,2.94,1.48,5.64,2.24,8.45a2.73,2.73,0,0,1,.15.56c.18,2.84,1.57,5.36,2.1,8.11.19,1,.43,1.9.67,2.84a12.72,12.72,0,0,0,.47,1.48c.69,1.74.45,2.66-1.09,3.65-1.09.7-2.18,1.38-3.22,2.17-1.8,1.37-3.78,2.52-5.66,3.79-1.4,1-2.77,1.94-4.12,3a9,9,0,0,1-3,1.8,1.85,1.85,0,0,0-.5.3c-2.56,1.89-5.09,3.83-7.7,5.67s-5.17,3.47-7.75,5.23c-2.2,1.51-4.35,3.09-6.55,4.59-3,2-6,4-9,6.07-2.15,1.46-4.27,3-6.4,4.46-3.19,2.23-6.35,4.48-9.55,6.69-1.5,1-3.08,1.95-4.58,3-1.93,1.31-3.8,2.7-5.72,4-1.17.81-2.4,1.54-3.58,2.34l-9.49,6.46c-.86.59-1.7,1.2-2.56,1.79l-8.35,5.73a39.13,39.13,0,0,0-3.52,2.42,20.18,20.18,0,0,0-2.47,2.74q-2.32,2.88-4.6,5.82c-2,2.51-3.88,5-5.84,7.56-2.28,2.92-4.59,5.81-6.87,8.73-1.29,1.64-2.51,3.32-3.79,5-1.67,2.15-3.37,4.29-5.07,6.42-2.39,3-4.85,5.94-7,9.13-.61.92-1.41,1.71-2.09,2.57-1.33,1.67-2.66,3.35-4,5-1.08,1.38-2.13,2.79-3.19,4.18-.48.62-.94,1.25-1.43,1.86-1.21,1.53-2.47,3-3.65,4.56-1.57,2.06-3.11,4.15-4.64,6.25a3.84,3.84,0,0,1-2.66,1.44,6.66,6.66,0,0,1-1.18,0q-41.19,0-82.38,0a4.46,4.46,0,0,1-3.93-2.06c-1.37-1.89-2.88-3.68-4.33-5.51,0-.06-.09-.1-.13-.15-2.29-3.07-4.57-6.16-6.88-9.22-.74-1-1.6-1.88-2.36-2.85-2.37-3-4.71-6.05-7.07-9.06-2.69-3.43-5.47-6.8-8.08-10.28a60,60,0,0,1-3.85-5.12,35.66,35.66,0,0,0-2.79-3.5c-2.51-3.17-5-6.34-7.5-9.51q-3-3.84-6-7.67a43.06,43.06,0,0,1-2.87-3.91,8.2,8.2,0,0,0-2.71-2.75c-1-.65-2-1.44-3-2-2.76-1.6-5.11-3.79-7.89-5.35-.85-.47-1.61-1.11-2.41-1.66-4.54-3.14-9-6.34-13.62-9.4-2.64-1.76-5.28-3.51-7.82-5.4-.84-.62-1.76-1.12-2.62-1.7-4.29-2.93-8.59-5.85-12.86-8.81-2-1.4-4-2.88-6-4.32a4,4,0,0,0-.48-.32A61.41,61.41,0,0,1,39.1,295c-.69-.49-1.43-.9-2.13-1.38-1-.69-2-1.43-3-2.13q-5.67-3.93-11.37-7.85c-2.14-1.48-4.25-3-6.39-4.47-3-2.06-6-4.11-9-6.13-1.93-1.3-3.9-2.55-5.86-3.81a2.34,2.34,0,0,1-1-3.18A35.15,35.15,0,0,0,2.41,259a14.65,14.65,0,0,1,.41-1.71c.89-2.79,1.58-5.63,2.21-8.49.43-2,1.18-3.84,1.79-5.75a4.33,4.33,0,0,0,.42-1.29c-.07-2.62,1.21-4.9,1.86-7.33a28.57,28.57,0,0,0,.67-3,21.56,21.56,0,0,1,.84-3.2c.67-2.18,1.3-4.36,1.76-6.6a65.29,65.29,0,0,1,1.93-6.35,6.23,6.23,0,0,0,.36-1.31c.16-2.71,1.35-5.15,2-7.72a4.75,4.75,0,0,0,.31-.92c.17-2.84,1.56-5.33,2.22-8a7,7,0,0,0,.19-.76c.25-2.74,1.31-5.28,2-7.93.53-2.14,1.11-4.28,1.67-6.42a5,5,0,0,1,.19-.76,19.2,19.2,0,0,0,1.39-7.83,15.53,15.53,0,0,1,.36-2.5c.1-.64.24-1.28.32-1.92.22-1.81.45-3.61.62-5.42.35-3.76.69-7.52,1-11.28a32,32,0,0,1,.53-4.85,32.23,32.23,0,0,0,.33-4.08c.08-.77.25-1.53.39-2.3a5.33,5.33,0,0,0,.19-.95c-.11-4.51,1.18-8.91,1-13.42a19.23,19.23,0,0,1,.31-2.71c.35-3.3,1.15-6.55,1.11-9.89a11.83,11.83,0,0,1,.1-2.15c1-6.18,1.18-12.45,1.94-18.66.34-2.78.46-5.59.86-8.36.75-5.29,1-10.63,1.53-15.94.35-3.16.89-6.3,1.27-9.46.17-1.49.18-3,.23-4.49a13.91,13.91,0,0,1,.54-4.44A6.31,6.31,0,0,0,37.43,49a14.42,14.42,0,0,1,.64-5,1.27,1.27,0,0,0,.09-.58c-.19-4.06.93-8,1-12.06a33,33,0,0,1,.4-3.69c.09-.84.19-1.68.28-2.52.19-1.68.39-3.36.58-5,0-.13.06-.25.07-.38.33-3.31.67-6.61,1-9.92.25-2.59.47-5.19.7-7.79a4.91,4.91,0,0,1,.1-.77c.26-1.07,1-1.35,1.89-.68a13.77,13.77,0,0,1,1.41,1.35L52,8.43c.91.92,1.84,1.82,2.76,2.74,3.78,3.77,7.53,7.55,11.32,11.3,3.38,3.35,6.81,6.64,10.2,10C78.83,35,81.39,37.62,84,40.19L95.18,51.34q7.75,7.71,15.52,15.41c3.48,3.42,7,6.8,10.48,10.23,2,2,4,4.09,6,6.11.69.69,1.46,1.3,2.15,2,1.79,1.79,3.55,3.61,5.35,5.4,1.24,1.23,2.52,2.42,3.78,3.64s2.27,2.15,3.36,3.27a4.34,4.34,0,0,0,3.34,1.31c3.59,0,7.18,0,10.76,0q52.26,0,104.5,0A4.45,4.45,0,0,0,264,97.13c2-2.16,4.12-4.16,6.19-6.22q6.3-6.25,12.6-12.51c3.72-3.73,7.41-7.5,11.12-11.24,3.17-3.18,6.37-6.34,9.55-9.51,3.36-3.36,6.69-6.75,10.08-10.08,3.67-3.6,7.41-7.14,11.08-10.73,1.76-1.73,3.44-3.54,5.19-5.29,1.46-1.48,3-2.9,4.45-4.37.88-.87,1.7-1.79,2.58-2.65,2.45-2.43,4.95-4.81,7.38-7.25,1.88-1.88,3.69-3.84,5.55-5.74,1.13-1.16,2.33-2.27,3.47-3.43,2.15-2.16,4.28-4.34,6.42-6.51C360.3,1,360.81.16,361.77,0ZM202.22,380.87h7.24c6.53,0,13,0,19.57,0a4,4,0,0,0,3.77-1.95,43.75,43.75,0,0,1,2.86-3.93c1.13-1.43,2.37-2.77,3.5-4.2,2.47-3.1,4.89-6.24,7.34-9.36,1.72-2.2,3.46-4.38,5.17-6.6s3.47-4.88,5.43-7.12c1.77-2,3.28-4.21,4.91-6.32s3.46-4.54,5.24-6.78c1.17-1.47,2.44-2.87,3.64-4.33,1-1.2,1.94-2.43,2.89-3.67,2-2.58,3.89-5.18,5.87-7.74a7,7,0,0,1,1.51-1.52c2-1.38,4-2.7,6-4.05,2.74-1.85,5.48-3.68,8.2-5.55,1.44-1,2.84-2,4.28-3,2.3-1.57,4.62-3.12,6.93-4.68,2.62-1.78,5.29-3.5,7.86-5.35,2.32-1.66,4.78-3.1,7.1-4.77,4.27-3.07,8.76-5.83,13-9,.11-.08.24-.12.34-.19,2.18-1.41,4.37-2.8,6.52-4.24,2.43-1.63,4.86-3.25,7.23-5,1.32-1,2.76-1.69,4.11-2.58,2.6-1.71,5.09-3.6,7.63-5.4,1.75-1.24,3.5-2.48,5.27-3.68,1.39-.95,2.83-1.84,4.24-2.75a2.19,2.19,0,0,0,1-2.7c-.69-2-1.26-4.07-1.77-6.15-.66-2.76-1.94-5.36-2.18-8.25a2.85,2.85,0,0,0-.22-.74,43.74,43.74,0,0,1-2.27-7.87,12.72,12.72,0,0,0-.47-1.48,55.26,55.26,0,0,1-1.84-6.18,64.35,64.35,0,0,0-1.77-6.75,8.41,8.41,0,0,1-.62-1.83,15.57,15.57,0,0,0-.91-3.78c-.69-2.3-1.42-4.58-1.93-6.94s-1.33-4.49-1.94-6.75c-1-3.64-1.85-7.32-2.91-10.93a30.32,30.32,0,0,1-1.44-8.22,4.74,4.74,0,0,0-.16-1.36,19.44,19.44,0,0,1-.6-5.42c-.05-1.3-.12-2.6-.25-3.9s-.38-2.83-.55-4.25c-.1-.9-.12-1.82-.22-2.72-.17-1.75-.38-3.5-.56-5.25a13.85,13.85,0,0,0-.18-1.94,31.1,31.1,0,0,1-.64-6.8c0-.78,0-1.57-.13-2.34-.68-5.76-1.44-11.51-2.07-17.27-.49-4.47-.82-9-1.22-13.44-.32-3.43-.45-6.9-1-10.29a81.33,81.33,0,0,1-.66-8.37c0-.72-.15-1.43-.24-2.13-.15-1-.35-2-.45-3.08a16.75,16.75,0,0,0-.23-3.5,20.86,20.86,0,0,1-.6-4.82c-.08-1-.24-1.94-.37-2.9s-.26-1.68-.31-2.52c-.09-1.56-.07-3.13-.2-4.69-.15-1.75-.39-3.5-.65-5.23a.84.84,0,0,0-1.43-.6,16.65,16.65,0,0,0-1.55,1.48c-.78.79-1.54,1.6-2.32,2.38-1.85,1.83-3.71,3.65-5.55,5.49-2.89,2.91-5.74,5.85-8.64,8.74-5.43,5.43-10.89,10.83-16.32,16.26-2.85,2.84-5.67,5.72-8.51,8.58l-10.87,10.92c-2.57,2.58-5.14,5.15-7.69,7.74a3.57,3.57,0,0,1-2.26,1,18.25,18.25,0,0,1-2,.06H134.78l-3.13,0a2.32,2.32,0,0,1-1.78-.64L124.16,122c-1-1-2-2.09-3-3.06a30.92,30.92,0,0,1-4-4.23,6.77,6.77,0,0,0-1-1c-1.16-1-2.38-2-3.48-3.12-2.89-2.88-5.73-5.8-8.58-8.71-.78-.79-1.47-1.68-2.3-2.4A27.68,27.68,0,0,1,97.47,95a2.49,2.49,0,0,0-.85-.8,11.51,11.51,0,0,1-3.07-2.66c-1.74-1.76-3.48-3.5-5.23-5.25l-7.89-7.83c-1-1-2-1.91-2.92-2.88-3.14-3.12-6.26-6.25-9.41-9.36-.4-.39-.8-1-1.49-.7s-.52,1-.56,1.55a30.87,30.87,0,0,1-.24,4.09A33.59,33.59,0,0,0,65.23,77c0,.77-.13,1.55-.23,2.32-.15,1.09-.39,2.17-.5,3.26a28.27,28.27,0,0,1-.25,3.7,33.18,33.18,0,0,0-.6,5.43c-.15,2.14-.35,4.28-.58,6.42s-.62,4.52-.84,6.78c-.42,4.35-.75,8.7-1.15,13-.27,2.86-.59,5.71-.88,8.56-.31,3-.43,6.12-1,9.13a59.45,59.45,0,0,0-.64,8c0,1.11-.16,2.21-.29,3.31s-.35,2-.46,3.08c-.32,3.17-.4,6.39-1,9.52a57.05,57.05,0,0,0-.67,7.58,6.53,6.53,0,0,1-.2,1.94,13.26,13.26,0,0,0-.56,4.05c-.05,1-.13,1.95-.25,2.92s-.35,2-.44,3.07a34.83,34.83,0,0,1-.23,3.7c-.4,2-1,4-1.52,6-.62,2.32-1.29,4.63-1.93,7-.81,2.94-2,5.79-2.34,8.85a6.44,6.44,0,0,1-.34,1.11c-.68,2.37-1.68,4.65-2,7.12a5.25,5.25,0,0,1-.26.94c-.81,2.65-2,5.2-2.16,8a1.89,1.89,0,0,1-.13.57,52.24,52.24,0,0,0-2.49,8.6c0,.19-.11.37-.16.56-1,3.24-2.12,6.44-2.81,9.73-.52,2.49-1.86,4.75-1.89,7.35a.67.67,0,0,1-.12.36c-1.07,1.62-1.13,3.58-1.82,5.33a2.1,2.1,0,0,0,.95,2.85c1.07.74,2.14,1.49,3.22,2.21,3.56,2.38,7.16,4.72,10.71,7.12,2.41,1.64,4.77,3.37,7.17,5,1.7,1.18,3.43,2.31,5.15,3.48l6.42,4.38c2.09,1.43,4.19,2.85,6.27,4.29,2.4,1.67,4.71,3.5,7.21,5,3.06,1.85,6,4,8.88,6,1.75,1.22,3.43,2.55,5.2,3.75s3.44,2.09,5.09,3.23c3.16,2.17,6.25,4.44,9.4,6.62,2.4,1.65,4.85,3.21,7.26,4.85,1.24.84,2.37,1.84,3.66,2.59a15.81,15.81,0,0,1,4.32,3.6c2.41,3,4.78,6,7.17,9l.11.16q3.76,4.86,7.52,9.71c1.51,1.95,3,3.92,4.48,5.88.39.52.75,1.06,1.16,1.56,1.66,2.08,3.36,4.14,5,6.23,2.33,3,4.61,6,6.93,8.94,1.36,1.74,2.76,3.44,4.13,5.18,1.8,2.3,3.58,4.61,5.37,6.91,1.39,1.8,2.82,3.57,4.17,5.4a5.64,5.64,0,0,0,5,2.65C185.13,380.78,193.68,380.87,202.22,380.87Z"/><path class="cls-1" d="M300.63,212.92c1.32,3.19,2.52,6.13,3.76,9.05a83,83,0,0,1,3.65,8.62c.89,3,2.75,5.69,3.37,8.94-1.25.64-2.36,1.31-3.55,1.78-3.43,1.38-6.9,2.66-10.34,4-1.21.48-2.36,1.11-3.56,1.59s-2.56.91-3.84,1.35a2.44,2.44,0,0,0-.56.17c-1.65,1.09-3.59,1.46-5.37,2.21-2.44,1-4.91,2-7.38,3-2,.79-4,1.46-6,2.28-2.57,1.07-5.08,2.28-7.64,3.37-1,.42-2.1.65-3.12,1.05-2.29.9-4.56,1.86-6.85,2.78a1.69,1.69,0,0,0-1.18,1.8c.09,4.75-.12,9.52.53,14.26a20.14,20.14,0,0,1,.14,2.34c.05,2.67.05,5.34.13,8s.25,5.59.34,8.39q.23,6.84.39,13.68c0,1.47-.35,1.83-1.85,1.91-2.86.15-5.73.28-8.59.42l-16.4.82c-2.23.11-3.29.23-3.25-3,0-2.73,0-5.47-.12-8.21s-.25-5.21-.37-7.81c-.1-1.95-.25-3.9-.27-5.86-.09-6.32-.09-12.65-.2-19,0-2.35-.29-4.68-.44-7-.07-1.11-.14-2.22-.17-3.32-.1-3.72-.21-7.43-.27-11.15a12.08,12.08,0,0,0-.31-4.05c-.3-.85.78-2.33,2-2.63,1.72-.43,3.23-1.37,4.89-1.86,2.56-.74,5-1.84,7.44-2.78q4-1.53,8-3.15c2.53-1,5-2.13,7.55-3.14,1.5-.6,3.05-1.06,4.56-1.64s2.86-1.23,4.31-1.8c2.71-1.07,5.45-2.1,8.17-3.17s5.3-2.14,7.95-3.18c1.51-.59,3-1.1,4.54-1.69,1.33-.51,2.64-1.08,4-1.62q4.79-2,9.56-3.91c1.38-.55,2.78-1.08,4.2-1.54A14.89,14.89,0,0,1,300.63,212.92Z"/><path class="cls-1" d="M92.31,239.65a20,20,0,0,1,1.18-4.19,12,12,0,0,1,.77-1.57,8.12,8.12,0,0,0,1.22-3.26,1,1,0,0,1,.11-.37q1.91-4.48,3.8-9c1.11-2.63,2.19-5.28,3.3-7.92.15-.34.36-.66.6-1.09.91.32,1.76.58,2.58.91,2.59,1,5.17,2.14,7.75,3.2,3.12,1.3,6.18,2.76,9.38,3.83s6.4,2.45,9.58,3.71c2.11.84,4.29,1.51,6.37,2.41,2.74,1.19,5.61,2,8.25,3.5a26.92,26.92,0,0,0,3.28,1.12c2.11.82,4.19,1.72,6.3,2.55,1.81.72,3.68,1.3,5.46,2.08,2.69,1.15,5.37,2.31,8.13,3.26,1,.35,1.25.8,1.17,2a14.5,14.5,0,0,1-1.39,4.45c-1,2.46-2.24,4.86-3.1,7.38s-2.07,4.92-2.89,7.43c-.6,1.87-1.62,3.52-2.2,5.39-.52,1.69-1.59,2-3.21,1.25-1.06-.48-2.09-1.07-3.19-1.46-3.24-1.17-6.37-2.59-9.52-4-1.72-.74-3.57-1.17-5.32-1.84-1.39-.53-2.7-1.26-4.08-1.82-2.46-1-4.95-2-7.42-2.93-1.09-.43-2.16-.89-3.24-1.34-1.67-.69-3.34-1.4-5-2.08-1-.38-1.94-.73-2.9-1.1-2.48-.95-5-1.87-7.42-2.87-3.49-1.41-6.94-3-10.44-4.32-1.93-.75-3.72-1.84-5.77-2.3A10.94,10.94,0,0,1,92.31,239.65Z"/></g></g></svg>
