<svg width="65" height="64" viewBox="0 0 65 64" fill="none" xmlns="http://www.w3.org/2000/svg">
    <path d="M58.1026 0C58.2311 0.0452484 58.2392 0.146667 58.2504 0.249647C58.3291 0.96738 58.411 1.68511 58.4865 2.40129C58.5106 2.62441 58.5187 2.84909 58.5396 3.07221C58.5926 3.6386 58.6199 4.20966 58.7131 4.76981C58.7853 5.21449 58.7821 5.66229 58.8528 6.10074C58.9203 6.50641 58.9299 6.91053 58.9572 7.3162C58.9685 7.47223 59.007 7.62826 59.0343 7.79365C59.0457 7.83292 59.0532 7.87315 59.0568 7.91379C59.0311 8.46458 59.2175 9.006 59.2062 9.54898C59.1993 9.64053 59.2096 9.73253 59.2367 9.82047C59.2972 10.0151 59.3254 10.2179 59.3203 10.4212C59.319 10.7263 59.3541 11.0304 59.4247 11.3277C59.4586 11.5487 59.4731 11.7721 59.4681 11.9955C59.4793 12.1359 59.513 12.2748 59.5339 12.4152C59.55 12.526 59.566 12.6352 59.5741 12.7476C59.5697 13.0218 59.6043 13.2954 59.6769 13.5605C59.6946 13.6298 59.7011 13.7014 59.6962 13.7727C59.7058 14.0177 59.7058 14.2626 59.7235 14.506C59.7363 14.6964 59.7717 14.8867 59.7942 15.0786C59.8279 15.3813 59.8552 15.6856 59.8905 15.9883C59.95 16.4829 60.0174 16.9775 60.0721 17.4721C60.101 17.7358 60.1058 18.0011 60.1331 18.2632C60.207 18.9716 60.2938 19.6784 60.3628 20.3868C60.3757 20.5085 60.3901 20.6302 60.395 20.7519C60.3926 20.9855 60.4218 21.2184 60.4817 21.4446C60.5084 21.5745 60.5197 21.707 60.5154 21.8394C60.5363 22.2435 60.5026 22.6539 60.6295 23.0502C60.6462 23.1403 60.6548 23.2317 60.6552 23.3232C60.6809 23.5557 60.713 23.7913 60.7403 24.0176C60.7532 24.1393 60.7628 24.261 60.7692 24.3827C60.7737 24.6364 60.8054 24.889 60.864 25.1363C60.8985 25.3163 60.912 25.4995 60.9042 25.6824C60.8907 25.9874 60.9226 26.2927 60.999 26.5889C61.0257 26.6982 61.0355 26.8107 61.0279 26.9228C61.0321 27.3189 61.1054 27.7114 61.2447 28.0837C61.2573 28.112 61.2654 28.142 61.2688 28.1726C61.3042 28.6235 61.5034 29.0355 61.6062 29.4708C61.6704 29.7376 61.7556 29.9997 61.8295 30.2634C61.8777 30.4304 61.9259 30.5957 61.9708 30.7627C62.0977 31.2308 62.2214 31.6989 62.3532 32.167C62.4463 32.4977 62.5604 32.8238 62.652 33.1546C62.7339 33.448 62.7965 33.7444 62.8672 34.0393C62.8788 34.0988 62.8938 34.1577 62.9122 34.2156C63.0682 34.6581 63.1964 35.1093 63.2961 35.5668C63.3668 35.8789 63.476 36.1707 63.5596 36.4749C63.6062 36.6419 63.6335 36.8119 63.6768 36.9789C63.7202 37.1458 63.7668 37.291 63.815 37.447C63.8744 37.6311 63.9371 37.8136 63.9965 37.9962C64.0122 38.0339 64.0235 38.0731 64.0303 38.1132C64.0784 38.5719 64.268 38.9932 64.3901 39.4317C64.4013 39.4599 64.4094 39.4892 64.4142 39.519C64.4431 39.9622 64.6664 40.3554 64.7515 40.7844C64.7821 40.9405 64.8206 41.0809 64.8592 41.2276C64.8795 41.306 64.9047 41.3831 64.9347 41.4585C65.0455 41.73 65.0069 41.8735 64.7596 42.028C64.5845 42.1372 64.4094 42.2433 64.2423 42.3666C63.9531 42.5803 63.6351 42.7598 63.3331 42.9579C63.1082 43.114 62.8881 43.2606 62.6712 43.426C62.5311 43.5493 62.3673 43.6448 62.1893 43.7069C62.1602 43.7182 62.133 43.734 62.109 43.7537C61.6978 44.0486 61.2913 44.3513 60.8721 44.6384C60.4528 44.9254 60.0415 45.1798 59.6271 45.4544C59.2737 45.69 58.9283 45.9365 58.5749 46.1706C58.093 46.4826 57.6111 46.7947 57.1291 47.1177C56.7838 47.3455 56.4432 47.5857 56.101 47.8135C55.5886 48.1615 55.081 48.5126 54.5669 48.8574C54.326 49.0134 54.0721 49.1616 53.8312 49.3255C53.5211 49.5299 53.2207 49.7467 52.9123 49.9496C52.7244 50.076 52.5268 50.1899 52.3372 50.3147L50.8127 51.3226C50.6746 51.4147 50.5397 51.5099 50.4015 51.6019L49.0602 52.496C48.8647 52.6118 48.676 52.7378 48.4947 52.8736C48.3493 53.004 48.2165 53.1471 48.0979 53.3011C47.8495 53.6007 47.6031 53.9034 47.359 54.2092C47.0377 54.6008 46.7357 54.9893 46.4208 55.3888C46.0546 55.8444 45.6835 56.2953 45.3172 56.7509C45.11 57.0068 44.914 57.2689 44.7084 57.531C44.4401 57.8665 44.167 58.2004 43.894 58.5327C43.51 59.0008 43.1148 59.4596 42.7695 59.9573C42.6715 60.1008 42.543 60.2241 42.4337 60.3583C42.2201 60.6189 42.0064 60.881 41.7912 61.1384C41.6177 61.3538 41.449 61.5738 41.2787 61.7906C41.2016 61.8874 41.1277 61.9857 41.049 62.0808C40.8546 62.3196 40.6522 62.5489 40.4627 62.7923C40.2105 63.1138 39.9631 63.4399 39.7173 63.7675C39.6654 63.8311 39.6008 63.8838 39.5274 63.9225C39.4539 63.9611 39.3732 63.9848 39.29 63.9922C39.2269 63.9977 39.1635 63.9977 39.1004 63.9922C34.6892 63.9922 30.2781 63.9922 25.8669 63.9922C25.7419 63.9968 25.6179 63.9696 25.5071 63.9132C25.3964 63.8568 25.3027 63.7732 25.2355 63.6708C25.0155 63.3759 24.7729 63.0966 24.54 62.8111C24.54 62.8017 24.5255 62.7955 24.5191 62.7877C24.1512 62.3087 23.785 61.8265 23.4139 61.3491C23.295 61.193 23.1569 61.0557 23.0348 60.9044C22.6541 60.4363 22.2782 59.9604 21.899 59.4908C21.4669 58.9556 21.0203 58.4298 20.6011 57.8868C20.3804 57.6314 20.174 57.3647 19.9826 57.0879C19.8451 56.8969 19.6954 56.7146 19.5344 56.5418C19.1312 56.0472 18.7312 55.5526 18.3296 55.058C18.0083 54.6585 17.687 54.2596 17.3658 53.8612C17.2004 53.6665 17.0465 53.4628 16.9047 53.2512C16.7968 53.0765 16.6476 52.9294 16.4694 52.8221C16.3088 52.7207 16.1481 52.5974 15.9875 52.51C15.5441 52.2604 15.1666 51.9187 14.72 51.6753C14.5835 51.6019 14.4614 51.5021 14.3329 51.4163C13.6036 50.9263 12.8871 50.427 12.1449 49.9496C11.7209 49.675 11.2968 49.4019 10.8887 49.107C10.7538 49.0103 10.606 48.9323 10.4679 48.8418C9.77871 48.3846 9.08796 47.929 8.40202 47.4672C8.08074 47.2487 7.75946 47.0178 7.43818 46.7931C7.41375 46.7747 7.38798 46.758 7.36107 46.7432C6.98097 46.5289 6.61604 46.2901 6.26872 46.0286C6.15787 45.9521 6.039 45.8881 5.92655 45.8133C5.76591 45.7056 5.60527 45.5901 5.44463 45.4809C4.83741 45.0721 4.22858 44.6638 3.61815 44.2561C3.27437 44.0252 2.93542 43.788 2.59165 43.5586C2.10973 43.2372 1.62781 42.9174 1.14589 42.6022C0.835851 42.3993 0.519389 42.2043 0.204533 42.0077C0.160183 41.9856 0.120792 41.9552 0.0886509 41.9182C0.0565098 41.8813 0.0322601 41.8384 0.0173122 41.7923C0.00236423 41.7461 -0.00298366 41.6975 0.00157953 41.6493C0.00614272 41.6011 0.0205259 41.5543 0.0438926 41.5115C0.193446 41.1571 0.304358 40.7884 0.374812 40.4115C0.391246 40.3214 0.41324 40.2323 0.440675 40.1447C0.583645 39.7094 0.694487 39.2663 0.795691 38.82C0.864766 38.508 0.985246 38.2209 1.08324 37.9229C1.11648 37.8596 1.13924 37.7917 1.15071 37.7216C1.13946 37.3128 1.34508 36.957 1.4495 36.5779C1.494 36.4239 1.52992 36.2676 1.55713 36.1098C1.58887 35.9403 1.63399 35.7733 1.69206 35.6105C1.79969 35.2704 1.9009 34.9302 1.97479 34.5807C2.06078 34.2456 2.16426 33.9149 2.28483 33.5899C2.31172 33.5241 2.33111 33.4555 2.34266 33.3855C2.36836 32.9627 2.55952 32.582 2.66394 32.181C2.68554 32.1349 2.70223 32.0868 2.71374 32.0374C2.74105 31.5943 2.96434 31.2058 3.07036 30.7892C3.08281 30.7503 3.093 30.7107 3.10088 30.6706C3.14104 30.2431 3.31132 29.8468 3.42216 29.4333C3.5073 29.0994 3.60048 28.7655 3.69043 28.4316C3.6974 28.3914 3.7076 28.3517 3.72096 28.313C3.88235 27.9254 3.95841 27.5092 3.94425 27.0913C3.95259 26.96 3.97193 26.8295 4.00208 26.7013C4.01814 26.6014 4.04063 26.5015 4.05348 26.4017C4.08882 26.1193 4.12577 25.8384 4.15308 25.556C4.2093 24.9693 4.26392 24.3827 4.31372 23.796C4.32223 23.542 4.35069 23.289 4.39886 23.0393C4.4304 22.8284 4.4481 22.6157 4.45187 22.4027C4.46472 22.2825 4.49203 22.1639 4.51452 22.0438C4.52931 21.9954 4.53952 21.9458 4.54504 21.8956C4.52737 21.1919 4.7346 20.5053 4.70568 19.8017C4.71196 19.6597 4.7286 19.5184 4.75548 19.3788C4.81171 18.8639 4.94022 18.3568 4.93379 17.8357C4.92864 17.7236 4.93402 17.6113 4.94986 17.5002C5.1105 16.536 5.13941 15.5577 5.2615 14.5887C5.31612 14.155 5.33539 13.7165 5.39965 13.2843C5.52013 12.4589 5.56029 11.6257 5.64543 10.7972C5.70165 10.3042 5.7884 9.81423 5.84944 9.32118C5.87675 9.08869 5.87836 8.85309 5.88639 8.62061C5.87664 8.38665 5.90594 8.1527 5.97314 7.92784C5.99623 7.83547 6.00543 7.74035 6.00045 7.64542C5.98729 7.38153 6.02209 7.11745 6.10326 6.86528C6.11528 6.83662 6.12024 6.80563 6.11771 6.77478C6.08719 6.1413 6.26711 5.52655 6.27835 4.89307C6.28864 4.70014 6.31009 4.50792 6.34261 4.31732C6.35707 4.18626 6.37313 4.0552 6.38759 3.92413C6.41811 3.662 6.45024 3.39987 6.48076 3.14399C6.48076 3.1237 6.4904 3.10498 6.49201 3.08469C6.54502 2.56824 6.59964 2.05334 6.65265 1.53689C6.69281 1.13277 6.72815 0.727095 6.76509 0.32142C6.76718 0.281023 6.77255 0.24085 6.78116 0.201277C6.82293 0.0343264 6.9418 -0.00936174 7.08477 0.0951777C7.16531 0.160098 7.241 0.230488 7.31127 0.305817L8.34098 1.31533C8.48716 1.45887 8.63656 1.5993 8.78435 1.74284C9.39157 2.33107 9.99397 2.92086 10.6028 3.50597C11.1458 4.02867 11.6968 4.54201 12.2413 5.06626C12.651 5.46102 13.0622 5.86981 13.4815 6.27081L15.2774 8.01053C16.1074 8.81252 16.9385 9.61399 17.7706 10.4149C18.3296 10.9486 18.8951 11.4759 19.4541 12.0111C19.7754 12.3232 20.0967 12.6493 20.4179 12.9645C20.5288 13.0721 20.6525 13.1673 20.7633 13.2765C21.0509 13.5558 21.3336 13.8398 21.6227 14.1191C21.8219 14.311 22.0276 14.4967 22.23 14.687C22.4324 14.8774 22.5946 15.0225 22.7697 15.1972C22.839 15.2665 22.9227 15.3205 23.0152 15.3558C23.1078 15.3911 23.207 15.4067 23.3063 15.4016C23.883 15.4016 24.4597 15.4016 25.0347 15.4016C30.6315 15.4016 36.2271 15.4016 41.8217 15.4016C41.9306 15.4058 42.039 15.3858 42.1386 15.3431C42.2383 15.3003 42.3266 15.236 42.3968 15.1551C42.7181 14.8181 43.0586 14.506 43.3912 14.1846C44.0658 13.5345 44.7405 12.8838 45.4152 12.2327C46.0128 11.6507 46.6056 11.0625 47.2015 10.4789C47.7108 9.98274 48.2248 9.48969 48.7357 8.99508C49.2754 8.47082 49.8103 7.94188 50.3549 7.4223C50.9445 6.8606 51.5453 6.30826 52.1348 5.74811C52.4175 5.47818 52.6874 5.19577 52.9685 4.92272C53.2031 4.69179 53.4505 4.47023 53.6834 4.24087C53.8248 4.10512 53.9565 3.96158 54.0978 3.82739C54.4914 3.44824 54.893 3.07689 55.2834 2.69618C55.5854 2.40285 55.8761 2.09703 56.1749 1.80058C56.3564 1.61958 56.5492 1.44639 56.7323 1.2654C57.0777 0.928373 57.4199 0.58823 57.7637 0.249647C57.8665 0.156029 57.9484 0.0249647 58.1026 0ZM32.4724 59.4268H33.6354C34.6844 59.4268 35.7238 59.4268 36.7792 59.4268C36.8993 59.4364 37.0199 59.4129 37.127 59.3591C37.2341 59.3053 37.3234 59.2233 37.3848 59.1225C37.5261 58.91 37.6795 58.7053 37.8442 58.5093C38.0258 58.2862 38.2249 58.0771 38.4065 57.854C38.8033 57.3703 39.192 56.8804 39.5856 56.3936C39.8619 56.0503 40.1414 55.7102 40.4161 55.3638C40.6908 55.0174 40.9735 54.6024 41.2884 54.2529C41.5727 53.9408 41.8153 53.596 42.0771 53.2668C42.339 52.9375 42.6329 52.5584 42.9189 52.2089C43.1068 51.9795 43.3108 51.7611 43.5036 51.5333C43.6642 51.346 43.8152 51.1541 43.9678 50.9607C44.2891 50.5581 44.5927 50.1524 44.9108 49.753C44.9787 49.6623 45.0605 49.5823 45.1534 49.5158C45.4747 49.3005 45.7959 49.0945 46.1172 48.8839C46.5574 48.5953 46.9975 48.3097 47.4345 48.0179C47.6658 47.8619 47.8907 47.7059 48.122 47.5499C48.4915 47.3049 48.8642 47.063 49.2353 46.8196C49.6561 46.5419 50.085 46.2735 50.4979 45.9849C50.8706 45.7259 51.2658 45.5012 51.6384 45.2406C52.3244 44.7616 53.0456 44.331 53.7268 43.8364C53.7444 43.8239 53.7653 43.8176 53.7814 43.8067C54.1316 43.5867 54.4834 43.3698 54.8288 43.1452C55.2191 42.8908 55.6095 42.6381 55.9902 42.365C56.2022 42.209 56.4336 42.1013 56.6504 41.9625C57.0681 41.6957 57.4681 41.4008 57.8761 41.1199C58.1572 40.9264 58.4384 40.7329 58.7227 40.5457C58.946 40.3975 59.1773 40.2586 59.4038 40.1166C59.4785 40.0771 59.5359 40.0127 59.5654 39.9352C59.595 39.8578 59.5946 39.7726 59.5644 39.6954C59.4536 39.3833 59.362 39.0603 59.2801 38.7358C59.1741 38.3051 58.9685 37.8995 58.9299 37.4485C58.9236 37.4087 58.9117 37.3698 58.8946 37.3331C58.7337 36.9357 58.6117 36.5246 58.5299 36.1051C58.5096 36.0267 58.4844 35.9496 58.4544 35.8742C58.3367 35.5586 58.238 35.2367 58.1588 34.9099C58.0837 34.5541 57.9888 34.2026 57.8745 33.8568C57.8301 33.7656 57.7967 33.6698 57.7749 33.5712C57.7517 33.3695 57.7026 33.1713 57.6287 32.9814C57.5179 32.6226 57.4006 32.2668 57.3187 31.8986C57.2368 31.5304 57.105 31.198 57.007 30.8454C56.8464 30.2774 56.7099 29.7033 56.5396 29.14C56.402 28.7249 56.3241 28.2933 56.3083 27.8574C56.3103 27.7859 56.3017 27.7144 56.2826 27.6452C56.2097 27.3691 56.1772 27.0844 56.1862 26.7996C56.1781 26.5967 56.1669 26.3939 56.146 26.191C56.1251 25.9882 56.085 25.7495 56.0577 25.5279C56.0416 25.3875 56.0384 25.2439 56.0223 25.1035C55.995 24.8305 55.9613 24.5574 55.9324 24.2844C55.93 24.1829 55.9204 24.0818 55.9034 23.9817C55.8292 23.6327 55.7947 23.2769 55.8006 22.9207C55.8006 22.799 55.8006 22.6757 55.7798 22.5556C55.6705 21.6568 55.5484 20.7597 55.4472 19.8609C55.3685 19.1635 55.3155 18.4567 55.2512 17.7639C55.1998 17.2287 55.179 16.6873 55.0906 16.1584C55.0321 15.7251 54.9967 15.2892 54.9846 14.8524C54.9846 14.7401 54.9605 14.6293 54.946 14.5201C54.9219 14.364 54.8898 14.208 54.8737 14.0395C54.8811 13.8567 54.8688 13.6737 54.8368 13.4934C54.7746 13.2472 54.7423 12.9948 54.7404 12.7413C54.7276 12.5853 54.7019 12.4386 54.681 12.2889C54.6601 12.1391 54.6392 12.0267 54.6312 11.8957C54.6167 11.6523 54.6199 11.4073 54.599 11.1639C54.5749 10.8908 54.5364 10.6178 54.4946 10.3478C54.4947 10.322 54.4869 10.2967 54.4721 10.2751C54.4574 10.2535 54.4365 10.2367 54.4119 10.2267C54.3873 10.2167 54.3603 10.2139 54.3341 10.2188C54.3079 10.2237 54.2839 10.2361 54.2649 10.2542C54.1769 10.3259 54.0937 10.4031 54.0159 10.4852C53.8906 10.6084 53.7685 10.7348 53.6432 10.8565C53.346 11.142 53.0473 11.426 52.7517 11.7131C52.2874 12.1671 51.8296 12.6259 51.3637 13.0768C50.4915 13.924 49.6144 14.7666 48.7421 15.6138C48.2843 16.057 47.8313 16.5063 47.375 16.9526L45.6289 18.6564C45.216 19.059 44.8032 19.4599 44.3935 19.8641C44.2955 19.9564 44.1668 20.0117 44.0305 20.0201C43.9237 20.0289 43.8164 20.032 43.7092 20.0295H21.6388H21.136C21.0838 20.0332 21.0313 20.0263 20.9821 20.0091C20.9328 19.9919 20.8878 19.9648 20.8501 19.9296L19.9328 19.0355C19.7722 18.8795 19.6115 18.7094 19.4509 18.5581C19.2158 18.3582 19.0007 18.1372 18.8083 17.8981C18.7605 17.8408 18.7067 17.7885 18.6477 17.7421C18.4613 17.586 18.2654 17.43 18.0886 17.2553C17.6244 16.8059 17.1682 16.3503 16.7104 15.8962C16.5851 15.773 16.4742 15.6341 16.3409 15.5218C16.0827 15.3149 15.8493 15.0804 15.6453 14.8228C15.6106 14.7712 15.5638 14.7284 15.5088 14.6979C15.3203 14.5891 15.1534 14.4486 15.0156 14.2829C14.7361 14.0083 14.4566 13.7368 14.1754 13.4637L12.908 12.242C12.7473 12.086 12.5867 11.944 12.4389 11.7927C11.9345 11.3059 11.4333 10.8175 10.9273 10.3322C10.863 10.2714 10.7988 10.1762 10.6879 10.223C10.5771 10.2698 10.6044 10.3791 10.598 10.4649C10.5997 10.6782 10.5868 10.8914 10.5594 11.103C10.5011 11.4035 10.4699 11.7084 10.4663 12.0142C10.4663 12.1344 10.4454 12.2561 10.4293 12.3762C10.4052 12.5463 10.3667 12.7148 10.349 12.8849C10.3486 13.078 10.3352 13.2708 10.3088 13.4622C10.2528 13.7415 10.2205 14.0249 10.2124 14.3094C10.1883 14.6433 10.1562 14.9772 10.1193 15.3111C10.0823 15.645 10.0197 16.0164 9.98433 16.369C9.91686 17.0477 9.86385 17.7265 9.7996 18.3974C9.75622 18.8436 9.70482 19.2883 9.65823 19.733C9.60843 20.2011 9.58916 20.6879 9.49759 21.1575C9.43441 21.5709 9.40006 21.9879 9.39478 22.4058C9.39478 22.579 9.36908 22.7506 9.3482 22.9222C9.32731 23.0939 9.29197 23.2343 9.2743 23.4028C9.2229 23.8974 9.21004 24.3998 9.11366 24.8882C9.05072 25.2797 9.01477 25.6748 9.00603 26.0709C9.01098 26.1728 9.00015 26.2748 8.9739 26.3736C8.91046 26.5784 8.88012 26.7916 8.88394 27.0055C8.87591 27.1615 8.86306 27.3098 8.84378 27.4611C8.82451 27.6125 8.78756 27.7732 8.7731 27.9401C8.77135 28.1331 8.75901 28.3258 8.73615 28.5174C8.6719 28.8295 8.57551 29.1416 8.49198 29.4536C8.39238 29.8156 8.28475 30.176 8.18194 30.5458C8.05183 31.0045 7.86066 31.4492 7.80605 31.9267C7.79324 31.9859 7.77497 32.0438 7.75143 32.0999C7.64219 32.4697 7.48155 32.8254 7.43015 33.2108C7.42094 33.2608 7.40696 33.3099 7.38838 33.3575C7.25826 33.7709 7.0671 34.1688 7.0414 34.6057C7.03923 34.6362 7.03218 34.6662 7.02051 34.6946C6.84789 35.13 6.71407 35.5789 6.62052 36.0365C6.62052 36.0661 6.60285 36.0942 6.59482 36.1239C6.43418 36.6294 6.25426 37.1287 6.14342 37.642C6.05988 38.0305 5.84462 38.3832 5.83981 38.7888C5.83909 38.809 5.83239 38.8285 5.82053 38.845C5.64864 39.0978 5.639 39.4036 5.52816 39.6766C5.50759 39.7155 5.49522 39.7579 5.49177 39.8014C5.48832 39.845 5.49387 39.8888 5.50809 39.9302C5.5223 39.9716 5.5449 40.0099 5.57456 40.0427C5.60421 40.0755 5.64033 40.1022 5.68077 40.1213C5.85266 40.2368 6.02454 40.3538 6.19803 40.4661C6.76991 40.8375 7.34822 41.2026 7.91849 41.5771C8.30564 41.833 8.68475 42.1029 9.07029 42.3572C9.34338 42.5413 9.62128 42.7176 9.89759 42.9002L10.9289 43.5836C11.2646 43.8067 11.602 44.0283 11.9361 44.253C12.3217 44.5135 12.6927 44.7991 13.0943 45.0331C13.5859 45.3218 14.0582 45.6572 14.5208 45.9693C14.8019 46.1596 15.0718 46.3672 15.3562 46.5544C15.6405 46.7416 15.9088 46.8805 16.1738 47.0584C16.6814 47.397 17.1778 47.7511 17.6838 48.0913C18.0694 48.3487 18.4629 48.5921 18.8501 48.848C19.0493 48.9791 19.2308 49.1351 19.438 49.2521C19.7021 49.3976 19.9371 49.5878 20.132 49.8138C20.5191 50.2819 20.8999 50.75 21.2838 51.2181L21.3015 51.2431C21.7041 51.7486 22.1068 52.2536 22.5095 52.7581C22.752 53.0624 22.9914 53.3697 23.2291 53.6756C23.2918 53.7567 23.3496 53.841 23.4155 53.919C23.6822 54.2435 23.9552 54.5649 24.2187 54.891C24.593 55.3591 24.9592 55.8272 25.3319 56.2859C25.5504 56.5574 25.7753 56.8227 25.9954 57.0942C26.2845 57.453 26.5705 57.8134 26.858 58.1723C27.0813 58.4532 27.311 58.7293 27.5279 59.0149C27.6124 59.1464 27.7312 59.2539 27.8722 59.3265C28.0133 59.3991 28.1716 59.4343 28.3311 59.4284C29.7271 59.4128 31.1005 59.4268 32.4724 59.4268Z" fill="#232323"/>
    <path d="M48.2814 33.2227C48.4934 33.7204 48.6862 34.1791 48.8854 34.6347C49.1067 35.072 49.3025 35.521 49.4717 35.9797C49.6147 36.4478 49.9135 36.8675 50.0131 37.3746C49.8123 37.4744 49.634 37.579 49.4428 37.6523C48.8918 37.8676 48.3344 38.0674 47.7818 38.2764C47.5874 38.3513 47.4027 38.4496 47.2099 38.5245C47.0172 38.5994 46.7987 38.6665 46.5931 38.7352C46.5621 38.7405 46.5319 38.7494 46.5031 38.7617C46.238 38.9318 45.9264 38.9895 45.6405 39.1065C45.2485 39.2625 44.8517 39.4186 44.4549 39.5746C44.1337 39.6979 43.8124 39.8024 43.4911 39.9303C43.0782 40.0973 42.675 40.2861 42.2638 40.4562C42.1032 40.5217 41.9265 40.5576 41.7626 40.62C41.3947 40.7604 41.0301 40.9102 40.6622 41.0538C40.6019 41.0719 40.55 41.1098 40.5155 41.1611C40.4809 41.2123 40.4657 41.2737 40.4727 41.3346C40.4871 42.0757 40.4534 42.82 40.5578 43.5596C40.5726 43.6808 40.5801 43.8027 40.5803 43.9247C40.5883 44.3413 40.5883 44.7579 40.6012 45.1729C40.614 45.588 40.6413 46.0451 40.6558 46.482C40.6804 47.1935 40.7013 47.905 40.7184 48.6165C40.7184 48.8458 40.6622 48.902 40.4213 48.9145C39.9618 48.9379 39.5008 48.9582 39.0413 48.98L36.4068 49.108C36.0486 49.1251 35.8783 49.1439 35.8848 48.6399C35.8848 48.2139 35.8848 47.7864 35.8655 47.3589C35.8462 46.9314 35.8253 46.546 35.806 46.1403C35.79 45.836 35.7659 45.5318 35.7627 45.226C35.7482 44.2399 35.7482 43.2522 35.7305 42.2614C35.7305 41.8948 35.684 41.5312 35.6599 41.1692C35.6486 40.996 35.6374 40.8228 35.6326 40.6512C35.6165 40.0708 35.5988 39.4919 35.5892 38.9115C35.6094 38.6996 35.5926 38.486 35.5394 38.2796C35.4912 38.1469 35.6647 37.916 35.8607 37.8692C36.137 37.8021 36.3795 37.6554 36.6462 37.579C37.0574 37.4635 37.4494 37.2919 37.8414 37.1452C38.2697 36.9861 38.6981 36.8222 39.1265 36.6537C39.5329 36.4977 39.9297 36.3214 40.3393 36.1638C40.5803 36.0702 40.8293 35.9984 41.0718 35.9079C41.3144 35.8174 41.5313 35.716 41.7642 35.6271C42.1995 35.4601 42.6397 35.2994 43.0766 35.1325C43.5136 34.9655 43.928 34.7985 44.3537 34.6363C44.5963 34.5442 44.8357 34.4646 45.083 34.3726C45.2967 34.293 45.5071 34.2041 45.7256 34.1198C46.2386 33.9118 46.7505 33.7084 47.2613 33.5097C47.483 33.4239 47.7079 33.3412 47.936 33.2695C48.0498 33.2457 48.1653 33.2301 48.2814 33.2227Z" fill="#232323"/>
    <path d="M14.8164 37.3924C14.8549 37.1684 14.9185 36.9492 15.006 36.7386C15.041 36.6542 15.0823 36.5723 15.1297 36.4937C15.2321 36.3399 15.2989 36.1663 15.3256 35.985C15.3276 35.9648 15.3336 35.9452 15.3433 35.9273C15.5479 35.4613 15.7513 34.9932 15.9537 34.523C16.1321 34.1127 16.3055 33.6992 16.4839 33.2873C16.508 33.2342 16.5417 33.1843 16.5802 33.1172C16.7264 33.1671 16.863 33.2077 16.9947 33.2592C17.4108 33.4152 17.8252 33.5931 18.2397 33.7585C18.7409 33.9613 19.2324 34.1891 19.7465 34.3561C20.2605 34.523 20.7746 34.7383 21.2854 34.9349C21.6244 35.066 21.9746 35.1705 22.3087 35.311C22.7488 35.4966 23.2099 35.623 23.634 35.8571C23.8056 35.9262 23.9816 35.9846 24.1609 36.0318C24.4998 36.1598 24.834 36.3002 25.1729 36.4297C25.4637 36.542 25.7641 36.6325 26.05 36.7542C26.4821 36.9337 26.9126 37.1147 27.356 37.2629C27.5167 37.3175 27.5568 37.3877 27.544 37.5749C27.5086 37.8166 27.4332 38.051 27.3207 38.2693C27.16 38.6531 26.9608 39.0276 26.8227 39.4208C26.6845 39.814 26.4902 40.1884 26.3584 40.5801C26.262 40.8718 26.0982 41.1293 26.005 41.4211C25.9215 41.6847 25.7496 41.7331 25.4894 41.6161C25.3191 41.5412 25.1536 41.4491 24.9769 41.3883C24.4564 41.2057 23.9536 40.9842 23.4476 40.7642C23.1713 40.6487 22.8741 40.5816 22.593 40.4771C22.3697 40.3944 22.1593 40.2805 21.9376 40.1931C21.5424 40.0371 21.1424 39.881 20.7457 39.7359C20.5706 39.6688 20.3987 39.5971 20.2252 39.5269C19.9569 39.4192 19.6886 39.3084 19.422 39.2023C19.2613 39.143 19.1103 39.0884 18.9561 39.0307C18.5577 38.8825 18.1529 38.7389 17.7642 38.5829C17.2035 38.3629 16.6493 38.1148 16.0871 37.9088C15.777 37.7918 15.4895 37.6217 15.1602 37.55C15.0401 37.5097 14.9248 37.4568 14.8164 37.3924Z" fill="#232323"/>
</svg>
